<?xml version="1.0" standalone="no"?>
<!DOCTYPE svg PUBLIC "-//W3C//DTD SVG 20010904//EN"
 "http://www.w3.org/TR/2001/REC-SVG-20010904/DTD/svg10.dtd">
<svg version="1.0" xmlns="http://www.w3.org/2000/svg"
 width="1921.000000pt" height="1921.000000pt" viewBox="0 0 1921.000000 1921.000000"
 preserveAspectRatio="xMidYMid meet">
<metadata>
Created by potrace 1.14, written by Peter Selinger 2001-2017
</metadata>
<g transform="translate(0.000000,1921.000000) scale(0.100000,-0.100000)"
fill="#000000" stroke="none">
<path d="M9645 19170 c-4 -11 -11 -18 -16 -15 -5 4 -12 -2 -16 -12 -4 -10 -9
-20 -12 -23 -3 -3 -22 -23 -41 -46 -96 -110 -131 -154 -130 -159 0 -3 -11 -16
-25 -29 -14 -13 -25 -28 -25 -35 0 -6 -3 -11 -7 -11 -5 0 -24 -25 -43 -55 -19
-30 -38 -54 -42 -55 -5 0 -8 -6 -8 -14 0 -8 -4 -16 -8 -18 -10 -4 -95 -128
-88 -128 3 0 -6 -12 -19 -26 -14 -15 -25 -33 -25 -40 0 -8 -4 -14 -9 -14 -5 0
-14 -13 -20 -30 -5 -16 -15 -30 -21 -30 -6 0 -9 -4 -5 -9 3 -5 1 -12 -4 -15
-5 -3 -18 -23 -29 -43 -10 -21 -30 -56 -42 -78 -54 -95 -89 -165 -82 -165 4 0
2 -4 -4 -8 -15 -10 -64 -119 -56 -126 3 -3 0 -6 -6 -6 -6 0 -16 -17 -23 -37
-7 -21 -20 -53 -30 -70 -10 -18 -16 -33 -13 -33 4 0 1 -7 -6 -15 -7 -8 -9 -15
-6 -15 4 0 0 -10 -8 -22 -9 -12 -16 -30 -16 -40 0 -9 -6 -32 -14 -50 -19 -46
-57 -158 -63 -188 -8 -39 -11 -55 -13 -60 -1 -3 -2 -9 -1 -14 1 -4 -3 -13 -8
-20 -5 -6 -11 -23 -13 -36 -2 -14 -6 -29 -10 -35 -3 -5 -9 -33 -13 -60 -3 -28
-9 -56 -13 -62 -4 -6 -65 77 -137 185 -136 205 -396 558 -462 628 -21 22 -72
77 -113 122 -100 110 -347 330 -490 435 -63 47 -120 90 -125 95 -6 5 -22 16
-36 25 -30 20 -18 40 -119 -188 -113 -253 -229 -569 -255 -691 -2 -11 -12 -57
-23 -104 -11 -47 -24 -105 -28 -130 -4 -25 -8 -47 -9 -50 -2 -9 -16 -105 -20
-135 -10 -85 -16 -218 -17 -370 -2 -147 1 -229 17 -462 3 -45 -4 -53 -25 -28
-7 8 -17 12 -23 8 -5 -3 -7 -2 -4 4 4 5 -10 25 -31 42 -59 53 -181 163 -223
203 -21 21 -39 36 -39 34 0 -2 -18 14 -41 36 -22 21 -45 35 -51 32 -6 -4 -8
-3 -5 3 4 6 -2 18 -13 28 -11 10 -20 14 -20 9 -1 -5 -7 2 -15 16 -7 14 -16 24
-19 22 -4 -1 -17 8 -29 20 -13 13 -38 34 -56 48 -17 14 -44 35 -59 48 -15 12
-61 48 -102 80 -41 31 -84 65 -94 74 -10 10 -23 15 -28 12 -4 -3 -8 0 -8 6 0
6 -8 14 -17 17 -10 4 -27 15 -37 25 -11 10 -26 18 -33 18 -7 0 -13 5 -13 10 0
6 -4 10 -10 10 -8 0 -33 15 -134 83 -51 34 -394 205 -400 199 -3 -3 -6 0 -6 6
0 7 -3 11 -7 10 -5 -1 -18 3 -29 10 -12 6 -24 8 -28 5 -3 -3 -6 0 -6 7 0 7 -3
10 -7 7 -3 -4 -11 -3 -17 2 -14 11 -88 36 -98 33 -5 -1 -8 3 -8 8 0 6 -7 10
-15 10 -8 0 -23 4 -33 9 -9 5 -30 15 -47 22 -16 7 -34 15 -40 18 -5 2 -7 1 -3
-4 4 -4 3 -17 -3 -28 -9 -15 -8 -18 2 -12 8 6 10 4 4 -5 -4 -7 -9 -23 -11 -34
-1 -12 -5 -34 -9 -51 -3 -16 -8 -46 -11 -65 -9 -62 -11 -75 -13 -75 -3 0 -11
-70 -13 -122 -2 -23 -6 -40 -9 -37 -3 2 -6 -22 -5 -52 1 -31 -1 -57 -5 -60 -4
-2 -5 -22 -4 -44 2 -24 -1 -38 -7 -34 -6 4 -6 -1 0 -13 6 -11 7 -25 2 -33 -13
-21 -13 -488 1 -515 2 -5 4 -36 4 -67 0 -32 2 -58 5 -58 3 0 6 -8 6 -17 1 -10
4 -40 8 -68 4 -27 9 -61 11 -75 5 -33 13 -70 31 -144 8 -34 17 -70 19 -81 3
-11 12 -47 21 -80 8 -33 17 -69 19 -80 2 -11 10 -39 19 -63 8 -23 16 -46 17
-50 1 -4 5 -17 10 -30 5 -13 9 -27 9 -32 0 -5 5 -21 12 -37 6 -15 12 -32 14
-38 1 -5 14 -44 27 -85 14 -41 24 -76 23 -78 -7 -6 -740 321 -943 422 -339
167 -648 286 -898 346 -120 29 -154 35 -274 46 l-63 6 6 -82 c4 -45 11 -105
17 -134 5 -28 11 -64 14 -81 29 -217 169 -645 333 -1015 98 -223 379 -769 442
-860 31 -46 32 -59 2 -55 -15 2 -27 4 -27 5 0 1 -17 3 -37 4 -20 1 -40 5 -44
9 -4 4 -14 1 -22 -6 -9 -6 -13 -7 -9 -1 4 7 -10 11 -40 13 -25 0 -49 3 -53 6
-8 5 -128 17 -177 18 -13 1 -23 4 -23 7 0 3 -19 7 -42 7 -24 1 -43 2 -43 3 0
3 -88 13 -117 14 -16 1 -28 4 -28 8 0 3 -8 5 -17 3 -10 -1 -22 0 -28 3 -5 3
-16 7 -25 8 -40 4 -135 21 -135 24 0 1 -11 3 -25 4 -14 0 -31 5 -38 9 -6 5
-12 6 -12 4 0 -3 -17 -1 -37 4 -40 9 -104 20 -138 22 -11 1 -22 5 -25 8 -3 4
-23 9 -45 12 -22 3 -53 8 -70 11 -16 3 -39 7 -50 9 -11 1 -26 7 -34 11 -10 7
-12 6 -6 -4 6 -10 4 -11 -6 -4 -14 9 -19 10 -79 18 -19 3 -50 8 -67 11 -18 3
-48 7 -65 10 -30 5 -59 8 -170 19 -20 2 -41 7 -47 10 -6 4 -11 3 -11 -3 0 -5
-10 -7 -23 -4 -44 10 -306 9 -299 -2 3 -5 -1 -4 -10 2 -8 7 -17 10 -21 7 -3
-3 -25 -8 -49 -10 -23 -3 -54 -7 -68 -10 -14 -3 -37 -5 -52 -5 -28 1 -48 -17
-31 -28 9 -5 22 -35 29 -63 1 -5 3 -11 4 -15 1 -5 2 -11 1 -15 0 -5 4 -8 10
-8 5 0 7 -4 4 -10 -3 -5 -1 -10 5 -10 6 0 8 -4 5 -10 -3 -5 -1 -10 4 -10 6 0
10 -3 9 -7 -4 -14 14 -57 31 -77 13 -16 13 -18 1 -12 -9 5 -8 2 2 -7 10 -8 15
-17 11 -21 -4 -3 2 -13 13 -22 10 -8 12 -12 4 -8 -12 6 -11 3 2 -12 9 -10 17
-23 18 -29 3 -16 53 -100 62 -103 5 -2 6 -8 2 -13 -3 -5 0 -9 7 -9 7 0 9 -3 6
-7 -4 -3 9 -28 29 -56 19 -27 30 -46 23 -41 -7 4 -4 -4 7 -18 10 -14 22 -24
25 -22 3 2 6 -3 6 -10 0 -11 57 -103 73 -116 3 -3 11 -17 17 -32 7 -16 17 -28
23 -28 5 0 10 -7 10 -15 0 -8 5 -15 11 -15 5 0 7 -4 4 -10 -3 -5 1 -10 10 -10
9 0 13 -5 10 -10 -3 -6 1 -13 9 -16 9 -3 16 -11 16 -18 0 -6 9 -18 19 -26 11
-7 18 -17 15 -21 -2 -4 6 -15 18 -23 12 -9 19 -16 15 -16 -5 0 -2 -6 5 -13 7
-8 24 -29 38 -48 14 -18 35 -44 48 -57 12 -12 22 -26 22 -29 0 -3 13 -19 30
-34 16 -16 26 -29 22 -29 -4 0 5 -11 20 -24 15 -12 25 -26 21 -30 -3 -3 -1 -6
5 -6 6 0 14 -9 17 -20 3 -11 14 -20 22 -20 9 0 14 -3 10 -6 -3 -3 7 -20 23
-38 17 -17 30 -35 30 -39 0 -5 5 -5 10 -2 5 3 10 -1 10 -9 0 -8 11 -23 25 -34
14 -11 25 -24 25 -29 0 -5 12 -21 28 -35 15 -14 52 -54 82 -88 30 -34 87 -95
126 -136 39 -40 70 -75 68 -77 -2 -2 7 -10 21 -17 13 -7 27 -21 31 -32 3 -10
12 -18 20 -18 8 0 14 -5 14 -11 0 -6 10 -19 22 -28 20 -17 9 -18 -268 -17
-245 1 -484 -7 -543 -19 -9 -1 -45 -6 -81 -9 -36 -4 -75 -8 -85 -10 -11 -2
-49 -7 -85 -11 -431 -46 -835 -152 -1143 -298 l-89 -42 65 -92 c83 -116 104
-141 257 -293 149 -149 312 -281 630 -509 198 -142 660 -483 710 -524 8 -7 39
-30 69 -52 l55 -40 -40 -8 c-21 -5 -46 -11 -54 -14 -8 -3 -22 -7 -30 -8 -68
-12 -96 -18 -105 -23 -5 -4 -19 -7 -30 -8 -11 -1 -31 -5 -45 -9 -14 -3 -29 -7
-35 -8 -58 -14 -145 -43 -145 -50 0 -4 -4 -6 -9 -3 -9 6 -231 -65 -263 -84
-10 -6 -25 -10 -33 -10 -8 0 -15 -5 -15 -11 0 -5 -4 -8 -9 -5 -5 3 -22 -1 -37
-9 -16 -8 -37 -15 -46 -15 -10 0 -18 -4 -18 -10 0 -5 -6 -10 -14 -10 -7 0 -30
-7 -50 -15 -20 -8 -38 -15 -41 -15 -3 0 -18 -6 -34 -14 -16 -9 -31 -12 -35 -9
-3 4 -6 2 -6 -4 0 -6 -11 -14 -25 -17 -25 -6 -157 -65 -207 -92 -16 -8 -28
-12 -28 -9 0 4 -7 -1 -16 -9 -8 -9 -20 -14 -25 -11 -5 4 -9 1 -9 -4 0 -6 -7
-11 -15 -11 -8 0 -15 -5 -15 -10 0 -6 -3 -10 -8 -9 -15 2 -52 -14 -52 -22 0
-5 -3 -9 -7 -8 -16 2 -53 -14 -53 -23 0 -5 -4 -6 -10 -3 -5 3 -10 1 -10 -4 0
-6 -9 -11 -20 -11 -11 0 -20 -4 -20 -10 0 -5 -11 -12 -24 -16 -14 -3 -27 -12
-30 -21 -3 -8 -10 -11 -16 -8 -5 3 -10 1 -10 -4 0 -6 -7 -11 -15 -11 -9 0 -18
-7 -21 -15 -4 -8 -10 -13 -14 -10 -5 3 -14 -1 -22 -8 -7 -7 -21 -16 -31 -20
-9 -3 -17 -11 -17 -17 0 -6 -5 -8 -10 -5 -6 3 -13 -1 -16 -9 -3 -9 -10 -14
-15 -11 -4 3 -13 -4 -19 -15 -6 -11 -15 -18 -21 -15 -5 4 -9 2 -9 -4 0 -5 -8
-12 -17 -15 -10 -3 -37 -23 -61 -45 -23 -21 -53 -46 -67 -55 -14 -9 -23 -21
-20 -27 4 -5 3 -9 -2 -8 -20 3 -34 -2 -28 -11 3 -6 1 -10 -6 -10 -7 0 -2 -11
11 -25 13 -14 30 -25 37 -25 8 0 11 -4 8 -10 -3 -5 -2 -10 2 -10 5 0 21 -11
36 -25 15 -14 27 -23 27 -20 0 3 11 -5 25 -19 13 -13 34 -27 45 -31 11 -3 20
-11 20 -16 0 -5 11 -14 25 -19 14 -5 25 -13 25 -17 0 -5 20 -17 45 -28 25 -11
45 -24 45 -29 0 -5 3 -7 6 -3 4 3 13 -1 21 -9 8 -8 19 -12 24 -9 5 4 9 2 9 -2
0 -12 56 -44 64 -36 3 3 6 2 6 -4 0 -11 57 -37 73 -34 4 0 10 -5 13 -13 3 -8
12 -12 20 -9 8 3 14 0 14 -6 0 -6 9 -11 19 -11 11 0 23 -5 26 -10 4 -6 11 -8
16 -5 5 4 9 1 9 -5 0 -6 5 -8 10 -5 6 3 10 2 10 -3 0 -9 75 -35 86 -30 3 2 10
-5 15 -15 6 -9 14 -15 18 -12 5 2 27 -4 49 -15 23 -11 46 -20 52 -20 6 0 22
-7 35 -16 14 -9 25 -13 25 -9 0 4 6 2 13 -4 8 -6 17 -8 20 -4 4 3 7 0 7 -7 0
-7 3 -11 6 -7 3 3 26 -3 50 -13 24 -11 44 -17 44 -13 0 3 7 0 15 -7 8 -6 20
-8 26 -4 8 4 9 3 5 -4 -4 -8 0 -12 11 -12 11 0 23 -4 28 -8 6 -4 35 -16 65
-26 30 -10 69 -24 85 -31 106 -44 135 -55 149 -55 9 0 16 -5 16 -11 0 -6 9 -9
19 -6 12 3 22 -1 25 -9 3 -8 16 -14 30 -14 13 0 26 -3 28 -7 3 -8 88 -42 126
-50 12 -3 22 -9 22 -14 0 -5 7 -9 15 -9 8 0 24 -4 35 -10 11 -5 29 -14 40 -20
11 -5 25 -10 31 -10 6 0 33 -11 60 -25 27 -13 49 -22 49 -18 0 3 6 0 13 -6 8
-6 17 -8 20 -4 4 3 7 1 7 -6 0 -7 5 -9 10 -6 6 3 10 3 10 -2 0 -4 -157 -112
-348 -239 -302 -202 -588 -405 -702 -500 -218 -182 -419 -373 -540 -514 -36
-41 -67 -77 -70 -80 -14 -14 -130 -173 -130 -179 0 -11 209 -87 315 -114 119
-30 238 -54 320 -63 33 -4 67 -8 75 -9 46 -8 208 -23 340 -31 58 -3 128 -7
155 -9 28 -2 116 -6 195 -10 80 -4 168 -9 195 -10 205 -13 374 -18 585 -19
l246 -1 -53 -55 c-29 -30 -53 -58 -53 -62 0 -5 -7 -8 -15 -8 -8 0 -15 -5 -15
-10 0 -6 -11 -21 -25 -34 -13 -13 -22 -26 -18 -29 3 -4 -1 -7 -10 -7 -10 0
-17 -4 -17 -9 0 -5 -20 -28 -45 -52 -24 -24 -43 -44 -41 -46 1 -2 -18 -25 -43
-51 -96 -101 -151 -164 -151 -172 0 -5 -6 -13 -12 -17 -7 -4 -30 -28 -51 -53
-22 -25 -51 -58 -66 -75 -23 -26 -151 -181 -174 -210 -4 -5 -21 -26 -37 -45
-16 -19 -30 -38 -30 -41 0 -3 -10 -17 -23 -31 -35 -40 -57 -68 -57 -73 0 -2
-18 -28 -40 -57 -22 -29 -40 -59 -40 -66 0 -7 -4 -11 -9 -7 -5 3 -13 -5 -17
-17 -3 -12 -13 -28 -20 -36 -8 -7 -11 -19 -7 -25 3 -7 2 -9 -2 -4 -9 8 -65
-70 -65 -90 0 -7 -4 -13 -9 -13 -5 0 -16 -15 -25 -32 -20 -41 -39 -71 -47 -78
-10 -8 -40 -70 -34 -70 3 0 -3 -10 -15 -22 -11 -12 -20 -28 -20 -35 0 -7 -4
-13 -10 -13 -5 0 -9 -3 -8 -7 1 -5 -12 -38 -30 -75 -18 -37 -32 -70 -32 -73 0
-3 -6 -13 -15 -21 -8 -9 -13 -20 -10 -25 4 -5 1 -9 -6 -9 -6 0 -9 -8 -6 -20 3
-11 2 -18 -3 -15 -7 5 -25 -42 -22 -57 1 -5 -3 -8 -9 -8 -6 0 -9 -7 -5 -15 3
-8 2 -15 -2 -15 -10 0 -33 -60 -24 -61 4 0 16 -2 27 -5 11 -2 40 -5 65 -7 25
-2 50 -6 55 -9 6 -3 35 -5 65 -4 30 1 63 -2 72 -6 10 -5 18 -5 18 -1 0 4 46 8
103 7 56 0 108 4 115 9 8 6 12 5 12 -2 0 -7 5 -9 11 -5 6 4 37 8 68 10 68 4
88 8 97 17 4 4 13 2 21 -4 7 -6 13 -7 13 -2 0 5 10 9 22 8 13 -1 27 0 33 3 9
6 37 10 98 15 15 1 27 4 27 8 0 3 14 4 30 3 17 -1 30 1 30 4 0 4 15 8 33 10
32 2 72 9 72 12 0 2 32 8 80 14 22 3 55 10 73 15 18 5 35 10 37 10 3 1 6 1 8
2 16 4 67 11 85 11 12 0 22 4 22 8 0 5 8 9 18 9 19 0 64 7 102 15 14 3 34 8
45 10 11 2 31 7 45 10 41 9 83 18 118 23 17 3 32 8 32 12 0 3 21 7 48 9 26 1
48 7 50 12 2 5 10 6 17 4 8 -3 20 -2 27 2 7 4 24 9 38 10 14 1 41 7 60 14 19
6 51 14 70 16 19 3 37 9 38 15 2 5 7 7 10 5 4 -2 55 9 114 24 89 22 105 29 95
40 -10 12 -9 12 5 1 9 -7 22 -10 28 -6 17 10 12 -2 -24 -58 -19 -29 -44 -71
-56 -93 -323 -573 -442 -840 -520 -1169 -32 -134 -68 -330 -75 -408 -3 -29 -7
-63 -10 -77 -2 -14 -7 -59 -11 -100 -3 -41 -8 -88 -10 -105 -2 -16 -6 -65 -9
-107 -3 -43 -8 -87 -10 -99 -4 -21 -2 -21 88 -15 51 4 110 8 132 11 22 2 67 7
100 10 63 7 110 12 160 20 17 2 53 7 80 10 28 4 57 8 65 10 8 3 33 7 55 10
134 20 381 85 540 142 192 68 563 263 702 369 17 13 35 24 39 24 4 0 16 8 26
17 18 16 19 16 14 -7 -2 -14 -9 -37 -15 -52 -6 -16 -8 -28 -6 -28 2 0 0 -11
-5 -25 -10 -26 -19 -63 -25 -101 -2 -12 -8 -31 -14 -43 -9 -16 -9 -21 0 -21 8
0 8 -4 -1 -15 -7 -9 -14 -28 -16 -43 -1 -15 -3 -28 -4 -29 -1 -2 -4 -12 -5
-23 -1 -11 -4 -21 -5 -22 -1 -2 -3 -14 -4 -28 -1 -14 -5 -34 -9 -45 -3 -11 -8
-31 -11 -45 -3 -14 -7 -36 -11 -50 -7 -33 -16 -89 -19 -120 -1 -14 -6 -31 -10
-38 -4 -7 -2 -12 6 -12 8 0 9 -3 3 -8 -5 -4 -11 -11 -11 -17 -1 -5 -4 -25 -8
-43 -4 -23 -2 -31 6 -26 7 5 8 3 3 -5 -18 -29 -27 -291 -10 -291 6 0 6 -3 0
-8 -6 -4 -9 -18 -8 -32 2 -14 4 -62 6 -107 1 -46 4 -83 7 -83 3 0 6 -23 8 -52
1 -28 8 -59 15 -67 9 -12 9 -13 -1 -7 -9 5 -11 1 -8 -16 3 -13 5 -23 6 -23 2
0 5 -19 14 -90 3 -22 8 -58 12 -80 3 -22 6 -46 7 -52 0 -7 3 -13 6 -13 3 0 7
-12 7 -27 4 -71 10 -113 15 -113 6 0 8 -10 11 -55 1 -14 5 -25 9 -25 3 0 5
-11 4 -25 -2 -14 1 -27 6 -31 5 -3 7 -9 4 -14 -3 -5 -3 -20 0 -33 5 -19 11
-23 31 -19 13 2 24 9 24 14 0 5 4 7 9 3 5 -3 17 2 25 11 10 10 16 11 16 3 0
-8 3 -9 13 0 8 6 17 8 20 4 4 -3 7 -2 7 4 0 6 16 14 35 17 19 4 35 11 35 16 0
5 6 7 14 4 8 -3 17 0 21 5 3 6 10 9 15 6 5 -3 11 -1 15 5 3 5 12 10 20 10 8 0
26 5 42 12 33 13 30 12 66 22 15 5 27 12 27 18 0 5 4 7 9 3 5 -3 12 -1 16 5 4
6 10 8 15 5 5 -3 15 1 23 9 8 8 17 12 21 9 3 -3 12 -1 19 5 8 7 17 9 20 5 4
-3 9 2 13 11 3 9 10 13 15 10 5 -3 21 2 36 10 54 28 128 61 136 58 4 -1 7 3 7
9 0 5 4 8 9 4 5 -3 13 0 16 5 7 12 55 34 68 32 4 -1 7 2 7 7 0 5 11 12 25 15
14 4 25 11 25 16 0 6 9 10 20 10 11 0 20 4 20 8 0 5 12 15 28 23 15 7 53 30
85 51 32 21 62 38 67 38 5 0 16 10 24 22 9 12 16 18 16 13 1 -6 10 1 20 14 11
13 20 20 20 16 0 -4 17 8 39 26 21 19 65 56 97 84 76 64 245 234 308 311 65
77 78 91 99 112 9 9 17 22 17 30 0 7 4 11 9 7 5 -3 12 3 16 14 3 11 12 24 20
31 11 9 13 7 10 -12 -2 -13 -6 -57 -10 -98 -3 -41 -8 -102 -11 -134 -12 -127
-6 -428 10 -526 3 -14 12 -74 20 -135 9 -60 18 -121 21 -135 3 -14 10 -52 15
-85 5 -33 24 -116 41 -185 17 -69 32 -132 34 -140 19 -92 136 -437 181 -538
62 -137 84 -186 107 -235 l22 -48 77 53 c277 192 581 482 828 791 45 56 89
111 98 123 10 11 28 36 42 55 13 19 28 39 33 44 15 17 299 417 351 493 27 40
52 74 55 77 4 2 8 -11 10 -28 4 -42 9 -72 11 -72 1 0 3 -11 4 -25 2 -14 7 -41
11 -60 5 -19 10 -38 11 -42 1 -5 2 -9 4 -10 1 -2 4 -19 7 -38 2 -19 9 -37 14
-38 5 -2 7 -7 4 -11 -4 -7 9 -68 22 -101 3 -8 7 -22 9 -30 2 -8 7 -23 13 -35
13 -29 23 -57 28 -78 1 -10 12 -37 23 -59 11 -23 20 -48 20 -55 0 -7 5 -13 12
-13 6 0 8 -3 5 -7 -4 -3 0 -17 8 -30 9 -13 13 -23 11 -23 -3 0 6 -22 19 -49
14 -27 25 -51 25 -54 0 -19 88 -186 95 -180 4 5 6 3 2 -2 -3 -6 12 -42 33 -80
21 -39 51 -94 65 -122 15 -29 31 -53 36 -53 5 0 8 -4 6 -8 -3 -14 118 -203
135 -210 4 -2 8 -9 8 -16 0 -8 13 -28 29 -47 16 -18 28 -37 25 -40 -2 -4 5
-14 16 -22 11 -7 18 -16 15 -18 -2 -3 15 -26 39 -52 23 -26 41 -47 38 -47 -3
0 5 -8 16 -19 12 -10 22 -23 22 -29 0 -6 3 -12 8 -14 4 -1 25 -25 47 -53 22
-27 48 -58 58 -68 18 -18 19 -18 38 5 11 13 33 38 50 56 16 19 29 38 29 44 0
5 5 6 10 3 6 -3 10 3 10 15 0 12 5 18 10 15 6 -3 10 -2 10 3 0 4 9 18 20 30
12 12 17 22 13 22 -4 0 3 7 15 16 12 8 20 19 17 24 -3 4 -1 10 3 12 18 7 71
91 65 102 -3 6 -3 8 2 4 8 -8 55 53 55 71 0 6 5 11 10 11 6 0 10 6 10 14 0 8
3 16 8 18 7 3 19 23 63 103 12 22 27 43 33 47 6 4 7 8 3 8 -5 0 1 13 12 29 11
15 18 31 14 35 -3 3 -1 6 6 6 7 0 9 5 6 10 -3 6 -3 10 2 10 8 0 39 62 34 69
-1 2 2 7 7 10 11 7 82 155 82 170 0 5 3 11 8 13 9 4 105 227 105 246 0 6 4 12
8 12 6 0 11 12 24 63 2 4 4 10 5 15 1 4 2 10 1 15 0 4 3 7 8 7 5 0 13 15 16
32 4 18 12 38 17 45 5 7 7 17 3 23 -3 5 -2 10 3 10 7 0 15 20 37 90 5 15 37
88 46 104 6 11 7 16 1 12 -6 -3 -1 13 10 36 12 24 21 49 21 56 0 6 4 12 9 12
4 0 7 3 6 8 -2 8 18 75 32 107 24 53 57 164 52 171 -4 4 -1 4 6 0 7 -4 23 -29
36 -54 71 -146 262 -461 369 -612 157 -220 408 -490 617 -665 52 -44 97 -82
100 -85 3 -3 23 -18 45 -35 22 -16 42 -31 45 -35 11 -12 201 -151 213 -156 16
-6 161 339 237 561 46 135 120 415 134 505 8 47 15 91 21 115 2 11 7 52 10 90
4 39 10 90 14 115 9 56 7 352 -3 440 -10 85 -51 336 -71 425 -18 83 -18 85 -4
85 5 0 7 -4 4 -10 -3 -5 0 -10 7 -10 7 0 24 -16 37 -35 13 -19 27 -35 32 -35
5 0 9 -5 9 -10 0 -6 28 -40 63 -75 34 -35 81 -84 104 -108 22 -25 44 -43 47
-40 3 4 6 1 6 -5 0 -14 118 -132 132 -132 5 0 6 -5 3 -10 -3 -6 -3 -10 2 -10
4 0 42 -32 83 -71 96 -91 215 -189 229 -189 6 0 11 -4 11 -9 0 -4 30 -30 66
-57 36 -27 71 -55 79 -61 7 -7 18 -13 24 -13 6 0 11 -4 11 -8 0 -5 10 -14 23
-21 12 -6 34 -19 49 -29 101 -64 242 -147 249 -145 5 2 9 -1 9 -7 0 -8 80 -49
96 -49 2 0 16 -9 31 -21 14 -11 32 -20 40 -20 8 0 28 -9 44 -21 16 -11 29 -17
29 -13 0 4 8 0 18 -8 18 -16 106 -52 118 -48 4 1 10 -2 13 -7 9 -12 73 -44 66
-33 -3 6 10 1 29 -11 20 -11 41 -22 48 -23 16 -4 65 -23 100 -41 27 -13 45 -5
33 15 -3 6 -2 10 4 10 6 0 9 13 7 30 -2 16 -1 32 3 36 3 3 7 20 9 37 1 18 5
48 8 67 3 19 6 53 8 76 1 22 5 45 8 50 3 5 4 19 3 31 -1 13 1 23 4 23 3 0 7
21 7 48 3 118 12 240 18 250 3 6 2 14 -4 17 -8 5 -8 11 0 20 7 9 7 15 1 19 -5
4 -7 16 -5 29 10 42 10 62 -1 70 -7 6 -7 10 0 13 11 4 12 71 1 81 -3 3 -1 14
4 24 6 10 7 20 2 23 -4 2 -7 34 -7 70 0 36 -2 66 -5 66 -3 0 -5 19 -4 43 0 23
-3 52 -8 64 -4 14 -4 23 3 23 6 0 7 6 3 12 -5 7 -9 19 -9 28 -1 8 -5 33 -9 55
-4 22 -10 56 -12 75 -9 63 -12 85 -14 85 -1 0 -4 14 -6 30 -3 17 -7 37 -11 45
-7 19 -13 50 -14 73 0 9 -3 17 -7 17 -4 0 -8 14 -9 31 -1 17 -6 36 -11 43 -7
9 -16 36 -37 106 -1 3 -7 18 -13 33 -7 16 -12 34 -12 42 0 8 -5 17 -10 20 -6
4 -8 11 -5 16 4 5 2 9 -3 9 -8 0 -18 24 -26 60 -3 11 -44 99 -91 196 -28 56
-46 100 -40 96 5 -3 55 -39 110 -80 363 -270 704 -449 1060 -557 132 -40 317
-87 410 -104 61 -11 78 -14 175 -31 80 -14 155 -23 340 -40 63 -6 132 -12 152
-15 36 -4 36 -4 33 28 -2 18 -6 63 -10 102 -4 38 -9 78 -11 90 -2 11 -7 36
-10 55 -2 19 -9 58 -15 85 -6 28 -13 61 -15 75 -3 14 -18 77 -35 140 -86 329
-237 691 -554 1335 -52 104 -92 191 -90 194 3 2 15 0 28 -6 12 -6 40 -18 62
-27 22 -10 47 -21 55 -25 8 -4 23 -7 33 -5 9 1 17 -1 17 -6 0 -4 21 -13 48
-20 26 -6 56 -16 67 -20 21 -9 52 -18 82 -25 10 -2 44 -12 76 -23 37 -13 57
-15 57 -8 0 8 2 8 8 0 4 -7 23 -14 42 -18 19 -3 55 -10 80 -15 51 -12 142 -24
183 -25 15 -1 27 -3 27 -6 0 -9 121 -14 350 -13 245 1 350 5 350 13 0 3 9 6
20 6 11 0 20 -4 20 -9 0 -5 6 -5 13 0 6 6 22 9 35 8 12 -1 22 1 22 4 0 3 15 7
33 8 45 2 142 11 142 13 0 1 9 3 20 4 11 2 36 6 55 9 71 13 86 16 125 22 22 4
54 9 70 10 17 2 30 4 30 5 0 2 38 11 60 13 20 2 23 29 6 52 -4 6 -16 36 -26
68 -11 31 -23 57 -27 57 -4 0 -5 7 -2 15 4 8 1 15 -5 15 -6 0 -11 5 -11 12 0
18 -33 88 -42 88 -4 0 -5 7 -2 15 4 8 1 15 -6 15 -6 0 -9 4 -5 9 3 6 -1 13 -9
18 -8 4 -15 12 -15 16 0 15 -26 67 -33 67 -5 0 -8 9 -8 20 0 11 -7 23 -15 26
-8 4 -12 10 -9 15 3 5 0 9 -7 9 -7 0 -9 3 -6 7 4 3 1 13 -5 21 -16 19 -36 53
-44 75 -3 9 -11 17 -16 17 -5 0 -7 4 -4 9 3 5 -1 12 -10 15 -9 4 -14 9 -11 12
3 4 -3 15 -14 27 -10 11 -19 27 -19 34 0 7 -4 13 -10 13 -5 0 -10 7 -10 16 0
8 -4 12 -10 9 -5 -3 -10 0 -10 8 0 8 -9 25 -20 38 -11 13 -24 29 -28 35 -5 5
-15 20 -21 33 -7 12 -20 30 -29 40 -9 10 -26 31 -37 46 -11 16 -26 34 -32 41
-7 7 -13 16 -13 21 0 4 -9 14 -20 21 -11 7 -20 19 -20 28 0 8 -4 12 -10 9 -5
-3 -10 -1 -10 4 0 12 -22 41 -66 88 -17 18 -30 34 -28 36 2 2 -16 25 -41 51
-25 27 -45 50 -45 52 0 6 -48 61 -92 107 -20 21 -37 41 -38 45 -1 4 -21 30
-45 57 -24 28 -59 68 -77 90 -18 21 -41 47 -50 57 -10 10 -18 20 -18 23 0 11
-39 43 -45 37 -4 -4 -5 -2 -3 4 2 6 -9 26 -24 43 -16 17 -28 33 -28 36 0 3 17
3 39 0 72 -11 148 -20 256 -32 134 -14 487 -7 555 12 8 2 31 6 51 9 144 21
392 100 593 188 141 61 597 287 631 312 16 12 10 23 -76 147 -292 421 -523
669 -850 911 -135 100 -339 241 -461 318 -86 55 -100 66 -75 67 33 1 139 17
192 30 17 4 35 7 40 8 15 1 128 25 143 30 7 3 13 4 15 4 1 -1 20 6 42 15 22
10 41 17 43 17 1 -1 3 -1 5 0 1 0 10 2 20 4 10 2 26 7 35 11 9 4 19 8 22 9 30
7 80 31 80 37 0 4 7 5 15 2 8 -4 15 -1 15 6 0 6 5 8 10 5 6 -3 10 -1 10 6 0 7
3 9 6 6 6 -6 213 97 224 112 3 3 22 15 43 26 20 11 37 23 37 27 0 5 6 8 14 8
7 0 26 12 42 27 16 15 30 25 31 22 0 -2 15 8 32 23 17 16 33 28 36 28 7 0 31
19 53 42 9 10 20 18 25 18 5 0 28 19 50 43 22 23 37 35 32 27 -4 -8 3 -5 16 8
13 12 36 33 51 46 15 13 24 27 21 30 -4 3 1 6 10 6 8 0 32 16 53 35 20 19 37
35 38 35 1 0 35 32 76 70 41 39 78 70 82 70 4 0 8 7 8 16 0 8 4 13 9 9 6 -3
13 1 18 8 4 7 19 21 33 30 13 9 20 17 15 17 -6 0 4 9 20 20 17 11 26 20 20 20
-5 0 -23 11 -39 25 -16 14 -33 25 -38 25 -5 0 -6 5 -3 10 3 5 2 10 -4 10 -6 0
-21 10 -34 23 -37 36 -86 77 -92 77 -2 0 -22 16 -42 35 -62 56 -73 65 -79 65
-4 0 -17 12 -30 26 -13 14 -28 23 -33 20 -5 -3 -12 1 -15 10 -3 8 -11 12 -16
9 -6 -4 -9 -3 -8 2 2 4 -1 10 -7 12 -5 3 -19 13 -29 23 -11 10 -26 18 -33 18
-8 0 -12 4 -9 9 3 5 -8 14 -24 21 -17 7 -30 16 -30 21 0 5 -7 9 -15 9 -8 0
-15 5 -15 11 0 5 -4 7 -10 4 -5 -3 -10 -2 -10 4 0 10 -39 27 -53 23 -5 -1 -6
1 -3 6 3 5 -7 15 -22 23 -15 8 -36 22 -47 32 -10 10 -25 15 -32 13 -7 -3 -13
-2 -13 2 0 4 -21 19 -47 32 -27 14 -51 30 -55 35 -4 6 -8 7 -8 3 0 -4 -29 8
-65 27 -36 19 -65 33 -65 30 0 -3 -15 4 -32 15 -18 11 -41 20 -50 20 -10 0
-18 3 -18 8 0 6 -44 24 -85 35 -5 2 -21 9 -34 16 -19 11 -22 11 -15 -1 4 -7
-1 -5 -12 4 -11 10 -31 19 -45 20 -13 2 -27 7 -30 11 -3 5 -15 10 -25 12 -10
2 -19 4 -19 5 0 1 -11 4 -25 6 -14 3 -26 9 -28 14 -2 6 -12 10 -22 10 -11 0
-32 5 -47 11 -62 25 -137 54 -143 55 -3 0 -39 11 -80 24 -41 13 -80 24 -87 26
-6 1 -19 6 -29 12 -14 8 0 15 67 37 115 37 250 91 334 133 70 35 248 146 275
173 8 8 33 27 55 44 119 88 345 340 513 569 83 113 332 482 332 491 0 3 -26
17 -57 31 -32 14 -71 32 -88 40 -56 26 -220 82 -330 112 -235 66 -500 111
-810 137 -38 3 -88 8 -110 10 -22 2 -67 7 -100 10 -33 3 -78 8 -100 10 -22 2
-74 7 -115 10 -41 4 -85 8 -98 10 -13 2 -53 7 -90 10 -37 3 -80 8 -97 10 -16
2 -64 7 -105 11 -41 4 -82 8 -90 10 -8 1 -26 3 -40 3 -21 1 -17 5 25 27 28 15
52 30 55 34 3 4 25 19 50 33 25 14 56 36 70 49 13 13 26 21 28 19 2 -1 19 11
38 27 19 17 37 31 40 30 6 0 74 54 106 85 10 9 21 17 25 17 11 0 149 149 214
230 85 107 89 113 89 127 0 7 4 13 9 13 10 0 59 78 59 94 0 5 7 13 16 18 9 5
16 13 16 19 0 5 11 27 25 49 14 22 22 40 18 40 -5 0 -1 6 8 13 18 13 17 12 25
45 4 12 10 22 14 22 8 0 25 49 22 63 -1 4 2 7 7 7 9 0 20 23 22 45 0 6 8 18
16 28 9 9 13 17 9 17 -4 0 0 10 8 22 9 12 16 30 16 39 0 10 4 19 10 21 5 2 11
15 12 31 1 15 6 27 10 27 6 0 18 26 24 53 1 4 3 9 4 12 1 3 4 10 5 15 1 6 4
13 5 18 1 4 2 10 1 15 0 4 3 7 9 7 5 0 10 8 10 18 0 10 9 35 20 57 11 21 18
41 15 43 -2 3 2 17 11 33 8 16 12 29 8 29 -4 0 -1 6 5 13 6 8 13 24 15 38 3
13 5 26 6 29 2 3 2 8 1 13 0 4 4 7 10 7 6 0 9 7 5 15 -3 8 -1 15 5 15 6 0 9 6
6 14 -3 8 -3 16 1 18 4 2 16 31 28 65 21 61 21 61 1 57 -11 -2 -26 1 -34 7
-10 9 -13 8 -13 -2 0 -9 -3 -10 -8 -4 -7 10 -47 18 -99 19 -13 1 -23 3 -23 6
0 3 -19 7 -42 8 -127 6 -154 8 -165 15 -6 4 -13 2 -15 -5 -3 -7 -9 -8 -19 -3
-21 14 -39 15 -39 3 0 -7 -5 -6 -14 1 -8 7 -17 8 -19 4 -5 -7 -62 -9 -62 -3 0
1 -21 3 -47 4 -27 1 -48 -3 -48 -7 0 -5 -6 -4 -13 2 -8 6 -17 8 -20 5 -3 -3
-36 -8 -74 -10 -151 -8 -328 -26 -328 -34 0 -1 -18 -3 -40 -5 -22 -1 -54 -6
-71 -9 -18 -3 -52 -8 -75 -11 -24 -3 -52 -8 -62 -11 -30 -9 -70 -15 -99 -14
-16 0 -28 -3 -28 -7 0 -5 -17 -9 -38 -10 -39 -2 -97 -10 -97 -13 0 -1 -12 -3
-28 -5 -15 -2 -51 -8 -80 -14 -28 -6 -68 -13 -87 -15 -19 -3 -44 -7 -55 -10
-11 -3 -38 -8 -60 -10 -22 -2 -51 -7 -65 -10 -14 -4 -38 -8 -55 -11 -88 -11
-121 -18 -132 -27 -23 -18 -7 18 48 112 110 185 138 237 216 395 128 260 260
605 308 805 2 8 8 27 13 42 6 14 16 52 21 85 14 73 17 91 36 183 33 161 32
159 40 250 3 41 8 89 9 105 2 17 7 65 11 109 l7 78 -94 -7 c-51 -4 -104 -8
-118 -10 -93 -13 -128 -19 -232 -40 -307 -62 -678 -200 -1203 -448 -162 -76
-331 -162 -422 -213 -39 -23 -87 -36 -55 -15 7 4 12 12 11 17 -2 5 5 33 14 63
9 30 15 57 12 59 -3 3 -1 10 4 16 8 10 43 129 55 189 4 15 8 37 11 50 11 57
15 75 24 112 6 22 12 56 16 75 3 19 8 49 12 65 3 17 7 39 7 50 1 11 5 26 9 33
5 7 3 12 -3 12 -6 0 -8 5 -3 13 10 17 13 36 28 177 4 30 8 69 10 85 3 17 7 93
10 169 3 77 7 141 10 144 2 2 0 13 -6 23 -5 11 -6 19 -2 19 4 0 8 11 8 25 0
14 -4 25 -9 25 -5 0 -3 6 3 14 8 9 8 21 2 39 -7 17 -7 28 0 32 5 4 7 11 3 16
-5 9 -8 43 -19 234 -1 33 -4 60 -5 60 -1 0 -3 20 -5 45 -2 25 -4 45 -5 45 -2
0 -5 20 -14 90 -4 28 -9 58 -12 67 -7 23 -14 58 -19 93 -2 17 -6 39 -9 50 -2
11 -5 24 -5 29 -1 5 -7 3 -14 -3 -8 -6 -17 -8 -20 -4 -4 3 -7 1 -7 -6 0 -7 -4
-10 -9 -6 -5 3 -12 1 -15 -4 -3 -5 -22 -12 -41 -15 -19 -4 -35 -11 -35 -17 0
-6 -5 -7 -10 -4 -6 4 -18 1 -26 -6 -8 -6 -17 -9 -20 -6 -4 3 -15 -4 -26 -16
-11 -12 -16 -16 -13 -9 6 12 3 12 -16 1 -13 -7 -27 -12 -31 -11 -5 1 -8 -3 -8
-9 0 -5 -4 -7 -10 -4 -5 3 -10 1 -10 -5 0 -6 -4 -8 -10 -5 -5 3 -10 1 -10 -4
0 -6 -3 -10 -7 -10 -21 3 -33 -2 -27 -13 4 -7 3 -8 -5 -4 -6 4 -24 0 -39 -10
-15 -10 -30 -18 -34 -17 -3 2 -12 -4 -18 -12 -7 -8 -19 -15 -26 -15 -8 0 -14
-4 -14 -10 0 -5 -3 -9 -7 -8 -12 2 -63 -24 -63 -33 0 -4 -11 -10 -25 -13 -14
-4 -25 -11 -25 -17 0 -6 -4 -7 -10 -4 -5 3 -10 2 -10 -4 0 -5 -10 -13 -22 -17
-13 -4 -31 -16 -40 -26 -9 -11 -20 -19 -25 -19 -4 0 -18 -9 -31 -19 -12 -11
-28 -21 -35 -23 -6 -1 -22 -12 -34 -24 -12 -13 -26 -23 -31 -23 -5 0 -21 -11
-36 -25 -14 -13 -26 -22 -26 -19 0 3 -6 -1 -14 -8 -8 -7 -11 -17 -8 -22 3 -5
0 -6 -6 -2 -10 6 -37 -12 -84 -56 -10 -10 -20 -18 -23 -18 -6 0 -22 -12 -53
-40 -10 -8 -41 -34 -69 -56 -29 -23 -49 -45 -45 -49 4 -5 2 -5 -4 -2 -6 3 -24
-6 -41 -21 -16 -15 -47 -40 -68 -57 -53 -41 -103 -85 -137 -118 -15 -15 -28
-25 -28 -23 0 3 -12 -5 -27 -19 -74 -64 -139 -123 -171 -152 -40 -38 -48 -40
-48 -15 -1 35 -15 248 -19 287 -7 66 -15 156 -20 225 -3 36 -10 103 -16 150
-6 47 -13 101 -15 120 -2 19 -7 51 -10 70 -3 19 -7 49 -9 65 -6 46 -51 270
-74 365 -78 324 -217 707 -337 928 -5 10 -371 -260 -498 -366 -204 -172 -458
-428 -591 -596 -61 -76 -114 -143 -120 -150 -28 -32 -248 -380 -258 -409 -8
-21 -44 -18 -39 3 2 7 0 20 -4 29 -4 9 -8 18 -9 21 -1 3 -4 12 -8 20 -3 8 -17
49 -32 90 -15 41 -34 93 -43 115 -9 22 -17 44 -17 50 -1 5 -6 20 -13 31 -6 12
-8 24 -5 28 3 3 2 6 -4 6 -5 0 -10 6 -10 13 -1 14 -26 80 -33 87 -3 3 -6 10
-7 15 -5 24 -29 81 -36 86 -5 3 -8 8 -8 10 3 9 -21 69 -28 69 -4 0 -7 10 -8
22 -1 11 -8 25 -15 29 -7 5 -9 9 -5 9 4 0 2 10 -5 23 -7 12 -11 25 -10 30 1 4
-3 7 -8 7 -5 0 -9 3 -8 8 2 12 -21 63 -37 79 -8 8 -13 19 -10 24 4 5 1 9 -5 9
-6 0 -9 4 -6 9 4 5 3 11 -1 13 -5 1 -24 35 -43 73 -19 39 -38 72 -41 75 -4 3
-9 15 -13 28 -4 12 -12 22 -17 22 -6 0 -8 4 -5 9 3 5 -1 14 -9 21 -8 7 -15 18
-15 26 0 7 -8 18 -17 23 -10 6 -15 11 -10 11 10 0 -92 163 -109 173 -8 4 -14
17 -14 27 0 10 -6 23 -13 27 -8 4 -22 23 -32 41 -11 17 -23 32 -28 32 -4 0 -6
4 -3 8 7 11 -30 42 -40 34 -4 -4 -4 -1 0 6 5 8 -2 23 -18 38 -14 15 -28 35
-31 45 -4 10 -14 19 -22 19 -9 0 -14 3 -10 6 6 7 -2 18 -51 70 -18 18 -30 34
-27 34 3 0 -8 14 -25 30 -36 36 -37 36 -45 10z m-115 -360 c0 -5 -2 -10 -4
-10 -3 0 -8 5 -11 10 -3 6 -1 10 4 10 6 0 11 -4 11 -10z m-5 -800 c3 -5 1 -10
-4 -10 -6 0 -11 5 -11 10 0 6 2 10 4 10 3 0 8 -4 11 -10z m-475 -474 c0 -3 -4
-8 -10 -11 -5 -3 -10 -1 -10 4 0 6 5 11 10 11 6 0 10 -2 10 -4z m0 -646 c0 -5
-2 -10 -4 -10 -3 0 -8 5 -11 10 -3 6 -1 10 4 10 6 0 11 -4 11 -10z m4160 -320
c0 -5 -5 -10 -11 -10 -5 0 -7 5 -4 10 3 6 8 10 11 10 2 0 4 -4 4 -10z m-3750
-234 c0 -2 -8 -10 -17 -17 -16 -13 -17 -12 -4 4 13 16 21 21 21 13z m-4410
-86 c0 -5 -2 -10 -4 -10 -3 0 -8 5 -11 10 -3 6 -1 10 4 10 6 0 11 -4 11 -10z
m8720 -384 c0 -2 -8 -10 -17 -17 -16 -13 -17 -12 -4 4 13 16 21 21 21 13z
m-8240 -96 c0 -5 -5 -10 -11 -10 -5 0 -7 5 -4 10 3 6 8 10 11 10 2 0 4 -4 4
-10z m7511 -173 c-10 -9 -11 -8 -5 6 3 10 9 15 12 12 3 -3 0 -11 -7 -18z
m-11356 -1587 c3 -5 1 -10 -4 -10 -6 0 -11 5 -11 10 0 6 2 10 4 10 3 0 8 -4
11 -10z m1765 -160 c0 -5 -5 -10 -11 -10 -5 0 -7 5 -4 10 3 6 8 10 11 10 2 0
4 -4 4 -10z m12570 -234 c0 -2 -8 -10 -17 -17 -16 -13 -17 -12 -4 4 13 16 21
21 21 13z m385 -726 c3 -5 1 -10 -4 -10 -6 0 -11 5 -11 10 0 6 2 10 4 10 3 0
8 -4 11 -10z m-155 -160 c0 -5 -2 -10 -4 -10 -3 0 -8 5 -11 10 -3 6 -1 10 4
10 6 0 11 -4 11 -10z m-1120 -160 c0 -5 -2 -10 -4 -10 -3 0 -8 5 -11 10 -3 6
-1 10 4 10 6 0 11 -4 11 -10z m2400 -2554 c0 -3 -4 -8 -10 -11 -5 -3 -10 -1
-10 4 0 6 5 11 10 11 6 0 10 -2 10 -4z m635 -6 c3 -5 1 -10 -4 -10 -6 0 -11 5
-11 10 0 6 2 10 4 10 3 0 8 -4 11 -10z m-15995 -640 c0 -5 -2 -10 -4 -10 -3 0
-8 5 -11 10 -3 6 -1 10 4 10 6 0 11 -4 11 -10z m480 -160 c0 -5 -5 -10 -11
-10 -5 0 -7 5 -4 10 3 6 8 10 11 10 2 0 4 -4 4 -10z m1600 -2880 c0 -5 -2 -10
-4 -10 -3 0 -8 5 -11 10 -3 6 -1 10 4 10 6 0 11 -4 11 -10z m-1285 -480 c3 -5
1 -10 -4 -10 -6 0 -11 5 -11 10 0 6 2 10 4 10 3 0 8 -4 11 -10z m12895 -74 c0
-2 -8 -10 -17 -17 -16 -13 -17 -12 -4 4 13 16 21 21 21 13z m225 -886 c3 -5 1
-10 -4 -10 -6 0 -11 5 -11 10 0 6 2 10 4 10 3 0 8 -4 11 -10z m-3761 -86 c3
-8 2 -12 -4 -9 -6 3 -10 10 -10 16 0 14 7 11 14 -7z m-2634 -228 c0 -3 -4 -8
-10 -11 -5 -3 -10 -1 -10 4 0 6 5 11 10 11 6 0 10 -2 10 -4z m3040 -326 c0 -5
-2 -10 -4 -10 -3 0 -8 5 -11 10 -3 6 -1 10 4 10 6 0 11 -4 11 -10z m-6955
-240 c-3 -5 -12 -10 -18 -10 -7 0 -6 4 3 10 19 12 23 12 15 0z m315 -2 c0 -4
-4 -8 -9 -8 -6 0 -12 4 -15 8 -3 5 1 9 9 9 8 0 15 -4 15 -9z m7120 -232 c0 -3
-4 -8 -10 -11 -5 -3 -10 -1 -10 4 0 6 5 11 10 11 6 0 10 -2 10 -4z m-6725
-806 c3 -5 1 -10 -4 -10 -6 0 -11 5 -11 10 0 6 2 10 4 10 3 0 8 -4 11 -10z
m3365 6 c0 -3 -4 -8 -10 -11 -5 -3 -10 -1 -10 4 0 6 5 11 10 11 6 0 10 -2 10
-4z m-4320 -326 c0 -5 -2 -10 -4 -10 -3 0 -8 5 -11 10 -3 6 -1 10 4 10 6 0 11
-4 11 -10z m4795 -160 c3 -5 1 -10 -4 -10 -6 0 -11 5 -11 10 0 6 2 10 4 10 3
0 8 -4 11 -10z m-320 -160 c3 -5 1 -10 -4 -10 -6 0 -11 5 -11 10 0 6 2 10 4
10 3 0 8 -4 11 -10z m-4155 -320 c0 -5 -5 -10 -11 -10 -5 0 -7 5 -4 10 3 6 8
10 11 10 2 0 4 -4 4 -10z m3835 -1600 c3 -5 1 -10 -4 -10 -6 0 -11 5 -11 10 0
6 2 10 4 10 3 0 8 -4 11 -10z"/>
</g>
</svg>
